<?xml version="1.0" encoding="UTF-8"?>
<svg version="1.1" xmlns="http://www.w3.org/2000/svg" width="75" height="75">
<path d="M0 0 C24.75 0 49.5 0 75 0 C75 24.75 75 49.5 75 75 C50.25 75 25.5 75 0 75 C0 50.25 0 25.5 0 0 Z " fill="#FDFDFD" transform="translate(0,0)"/>
<path d="M0 0 C4.13442076 1.56856244 6.55723525 4.5686823 9.3125 7.875 C10.01342773 8.66970703 10.01342773 8.66970703 10.72851562 9.48046875 C13.9702299 13.33988043 13.9702299 13.33988043 14.08984375 15.9921875 C12.45740846 18.99961308 10.40220811 21.60674146 8.25 24.25 C7.7655542 24.85553711 7.2811084 25.46107422 6.78198242 26.08496094 C5.19562212 28.06293108 3.59888381 30.032143 2 32 C1.45102051 32.67804687 0.90204102 33.35609375 0.33642578 34.0546875 C-2.42443276 37.46454483 -5.19245172 40.86832914 -7.96875 44.265625 C-9.84794214 46.56998436 -11.70552661 48.88743703 -13.53125 51.234375 C-14.2428125 52.14703125 -14.954375 53.0596875 -15.6875 54 C-16.28949219 54.78375 -16.89148438 55.5675 -17.51171875 56.375 C-18.00285156 56.91125 -18.49398437 57.4475 -19 58 C-19.66 58 -20.32 58 -21 58 C-22.96773628 55.78998989 -24.80586838 53.57701101 -26.625 51.25 C-27.140625 50.61578125 -27.65625 49.9815625 -28.1875 49.328125 C-28.67476562 48.709375 -29.16203125 48.090625 -29.6640625 47.453125 C-30.33622803 46.60476074 -30.33622803 46.60476074 -31.02197266 45.73925781 C-32 44 -32 44 -32 40 C-30.8894043 38.20751953 -30.8894043 38.20751953 -29.32421875 36.3828125 C-28.74873291 35.70025391 -28.17324707 35.01769531 -27.58032227 34.31445312 C-26.95569092 33.59193359 -26.33105957 32.86941406 -25.6875 32.125 C-24.39712423 30.59746257 -23.10807892 29.06880034 -21.8203125 27.5390625 C-21.17481445 26.77625977 -20.52931641 26.01345703 -19.86425781 25.22753906 C-17.19488478 22.03799486 -14.61911972 18.78019133 -12.0625 15.5 C-11.61890137 14.93216797 -11.17530273 14.36433594 -10.71826172 13.77929688 C-9.47688761 12.18771968 -8.23837664 10.59391058 -7 9 C-6.26265625 8.05382813 -5.5253125 7.10765625 -4.765625 6.1328125 C-3.17485083 4.09025846 -1.58607709 2.04620184 0 0 Z " fill="#061017" transform="translate(59,6)"/>
<path d="M0 0 C0.99 0 1.98 0 3 0 C4.9179073 2.16729462 6.65218091 4.3108349 8.375 6.625 C9.31945456 7.86783993 10.2647612 9.11003283 11.2109375 10.3515625 C11.66952148 10.96418945 12.12810547 11.57681641 12.60058594 12.20800781 C13.96563577 13.95599556 15.42150708 15.57191154 16.9140625 17.2109375 C19 20 19 20 18.7824707 21.95849609 C17.95263883 24.12356759 16.99358794 25.63052805 15.56640625 27.453125 C15.08236328 28.071875 14.59832031 28.690625 14.09960938 29.328125 C13.59236328 29.96234375 13.08511719 30.5965625 12.5625 31.25 C12.05912109 31.8996875 11.55574219 32.549375 11.03710938 33.21875 C9.74309289 34.85474428 8.37653533 36.432803 7 38 C6.34 38 5.68 38 5 38 C3.33787263 36.01202391 1.78397061 34.02095685 0.25 31.9375 C-2.59046089 28.12756515 -5.41567344 24.45658853 -8.6875 21 C-11 18 -11 18 -10.94921875 15.73828125 C-9.66804451 12.04238354 -7.51595081 9.22529444 -5.125 6.1875 C-4.67769531 5.59001953 -4.23039063 4.99253906 -3.76953125 4.37695312 C-2.59017569 2.85492346 -1.30099674 1.41945811 0 0 Z " fill="#071118" transform="translate(17,6)"/>
</svg>
